<svg width="47" height="36" viewBox="0 0 47 36" fill="none" xmlns="http://www.w3.org/2000/svg">
<path d="M41.125 19C41.6773 19 42.125 18.5523 42.125 18C42.125 17.4477 41.6773 17 41.125 17V19ZM5.875 17C5.32272 17 4.875 17.4477 4.875 18C4.875 18.5523 5.32272 19 5.875 19L5.875 17ZM41.125 17L5.875 17L5.875 19L41.125 19V17Z" fill="white"/>
<path d="M15.0586 26.2939C15.497 26.6297 16.1247 26.5465 16.4605 26.1081C16.7964 25.6696 16.7132 25.042 16.2747 24.7061L15.0586 26.2939ZM5.875 18L5.26692 17.2061C5.01987 17.3953 4.875 17.6888 4.875 18C4.875 18.3112 5.01987 18.6046 5.26692 18.7939L5.875 18ZM16.2747 11.2939C16.7132 10.958 16.7964 10.3304 16.4605 9.89192C16.1247 9.45348 15.497 9.37029 15.0586 9.70612L16.2747 11.2939ZM16.2747 24.7061L6.48308 17.2061L5.26692 18.7939L15.0586 26.2939L16.2747 24.7061ZM6.48308 18.7939L16.2747 11.2939L15.0586 9.70612L5.26692 17.2061L6.48308 18.7939Z" fill="white"/>
</svg>
